# xmcd
#
# Track frame offsets:
# 150
# 18215
# 37946
# 61599
# 77703
# 94230
# 106714
# 132220
# 152844
# 173470
# 186857
# 195365
#
# Disc length: 2879 seconds
#
# Revision: 0
# Processed by: cddbd v1.5.2PL0 Copyright (c) Steve Scherf et al.
# Submitted via: Audion 3.0.2 (http://www.panic.com/audion/)
#
DISCID=800b3d0c
DTITLE=vcx - fx
DYEAR=1900
DGENRE=
TTITLE0=fdx
TTITLE1=vv
TTITLE2=gdvbc
TTITLE3=vdxv
TTITLE4=vdxvdx
TTITLE5=vcv
TTITLE6=vvcvcv
TTITLE7=vc
TTITLE8=vcvc
TTITLE9=vcvcb
TTITLE10=b
TTITLE11=gg
EXTD=
EXTT0=
EXTT1=
EXTT2=
EXTT3=
EXTT4=
EXTT5=
EXTT6=
EXTT7=
EXTT8=
EXTT9=
EXTT10=
EXTT11=
PLAYORDER=
